# MagicaVoxel @ Ephtracy

# group
o 

# material
mtllib Tatooine_antenna1.vox.mtl
usemtl palette

# normals
vn -1 0 0
vn 1 0 0
vn 0 0 1
vn 0 0 -1
vn 0 -1 0
vn 0 1 0

# texcoords
vt 0.00976562 0.5
vt 0.962891 0.5
vt 0.966797 0.5
vt 0.970703 0.5
vt 0.974609 0.5
vt 0.982422 0.5

# verts
v -0.5 0 -0.4
v -0.5 0 -0.5
v -0.5 0.1 -0.4
v -0.5 0.1 -0.5
v -0.4 0.1 0.3
v -0.4 0.1 0.2
v -0.4 1.4 0.3
v -0.4 1.4 0.2
v -0.3 0 0.3
v -0.3 0 0.1
v -0.3 0 -0.2
v -0.3 0.1 0.3
v -0.3 0.1 0.2
v -0.3 0.1 0.1
v -0.3 0.1 -0.2
v -0.3 0.1 -0.4
v -0.3 0.1 -0.5
v -0.3 0.2 0.2
v -0.3 0.2 0.1
v -0.3 0.2 -0.2
v -0.3 0.4 0.1
v -0.3 0.4 -0.2
v -0.3 0.5 0.1
v -0.3 0.5 -0.2
v -0.3 0.8 0.1
v -0.3 0.8 -0.2
v -0.3 0.9 0.1
v -0.3 0.9 -0.2
v -0.3 1.1 0.2
v -0.3 1.1 0.1
v -0.3 1.1 -0.2
v -0.3 1.2 0.2
v -0.3 1.2 0.1
v -0.3 1.2 -0.2
v -0.3 1.3 0.1
v -0.3 1.3 -0.2
v -0.3 1.4 -0.4
v -0.3 1.4 -0.5
v -0.2 0 -0.2
v -0.2 0 -0.3
v -0.2 0.1 -0.2
v -0.2 0.1 -0.3
v -0.2 0.1 -0.4
v -0.2 0.2 0.2
v -0.2 0.2 0.1
v -0.2 0.2 -0.2
v -0.2 0.2 -0.3
v -0.2 0.2 -0.4
v -0.2 0.4 0.2
v -0.2 0.4 0.1
v -0.2 0.4 -0.2
v -0.2 0.4 -0.3
v -0.2 0.5 0.2
v -0.2 0.5 0.1
v -0.2 0.5 -0.2
v -0.2 0.5 -0.3
v -0.2 0.8 0.2
v -0.2 0.8 0.1
v -0.2 0.8 -0.2
v -0.2 0.8 -0.3
v -0.2 0.9 0.2
v -0.2 0.9 0.1
v -0.2 0.9 -0.2
v -0.2 0.9 -0.3
v -0.2 1.1 0.2
v -0.2 1.1 0.1
v -0.2 1.1 -0.2
v -0.2 1.1 -0.3
v -0.2 1.1 -0.4
v -0.2 1.2 0.2
v -0.2 1.2 0.1
v -0.2 1.2 -0.2
v -0.2 1.2 -0.3
v -0.2 1.2 -0.4
v -0.2 1.3 0.2
v -0.2 1.3 0.1
v -0.2 1.3 -0.2
v -0.2 1.3 -0.3
v -0.2 1.9 0.1
v -0.2 1.9 0
v -0.2 1.9 -0.1
v -0.2 1.9 -0.2
v -0.2 2.2 0
v -0.2 2.2 -0.1
v -0.1 1.9 0.1
v -0.1 1.9 0
v -0.1 1.9 -0.1
v -0.1 1.9 -0.2
v -0.1 2.2 0.1
v -0.1 2.2 0
v -0.1 2.2 -0.1
v -0.1 2.2 -0.2
v -0.1 3.8 0
v -0.1 3.8 -0.1
v 0 0 -0.3
v 0 0 -0.4
v 0 0.1 -0.3
v 0 0.1 -0.4
v 0.2 0 0.4
v 0.2 0 0.3
v 0.2 0.1 0.4
v 0.2 0.1 0.3
v 0.3 0.2 0
v 0.3 0.2 -0.1
v 0.3 1.1 0
v 0.3 1.1 -0.1
v 0.3 1.2 0
v 0.3 1.2 -0.1
v 0.3 1.4 0
v 0.3 1.4 -0.1
v -0.4 0 -0.4
v -0.4 0 -0.5
v -0.4 0.1 -0.4
v -0.4 0.1 -0.5
v -0.3 0.1 0.3
v -0.3 0.1 0.2
v -0.3 0.2 0.2
v -0.3 1.1 0.2
v -0.3 1.2 0.2
v -0.3 1.4 0.3
v -0.3 1.4 0.2
v -0.2 0 0.3
v -0.2 0 0.2
v -0.2 0.1 0.3
v -0.2 0.1 0.2
v -0.2 0.1 -0.4
v -0.2 0.1 -0.5
v -0.2 0.2 -0.4
v -0.2 1.1 -0.4
v -0.2 1.2 -0.4
v -0.2 1.4 -0.4
v -0.2 1.4 -0.5
v -0.1 0.1 -0.3
v -0.1 0.1 -0.4
v -0.1 0.2 -0.3
v -0.1 0.2 -0.4
v -0.1 1.1 -0.3
v -0.1 1.1 -0.4
v -0.1 1.2 -0.3
v -0.1 1.2 -0.4
v 0 1.9 0.1
v 0 1.9 0
v 0 1.9 -0.1
v 0 1.9 -0.2
v 0 2.2 0.1
v 0 2.2 0
v 0 2.2 -0.1
v 0 2.2 -0.2
v 0 3.8 0
v 0 3.8 -0.1
v 0.1 0 0.2
v 0.1 0 0.1
v 0.1 0.1 0.2
v 0.1 0.1 0.1
v 0.1 0.2 0.2
v 0.1 0.2 0.1
v 0.1 0.2 -0.2
v 0.1 0.2 -0.3
v 0.1 0.4 0.2
v 0.1 0.4 0.1
v 0.1 0.4 -0.2
v 0.1 0.4 -0.3
v 0.1 0.5 0.2
v 0.1 0.5 0.1
v 0.1 0.5 -0.2
v 0.1 0.5 -0.3
v 0.1 0.8 0.2
v 0.1 0.8 0.1
v 0.1 0.8 -0.2
v 0.1 0.8 -0.3
v 0.1 0.9 0.2
v 0.1 0.9 0.1
v 0.1 0.9 -0.2
v 0.1 0.9 -0.3
v 0.1 1.1 0.2
v 0.1 1.1 0.1
v 0.1 1.1 -0.2
v 0.1 1.1 -0.3
v 0.1 1.2 0.2
v 0.1 1.2 0.1
v 0.1 1.2 -0.2
v 0.1 1.2 -0.3
v 0.1 1.3 0.2
v 0.1 1.3 0.1
v 0.1 1.3 -0.2
v 0.1 1.3 -0.3
v 0.1 1.9 0.1
v 0.1 1.9 0
v 0.1 1.9 -0.1
v 0.1 1.9 -0.2
v 0.1 2.2 0
v 0.1 2.2 -0.1
v 0.2 0 0.1
v 0.2 0 -0.2
v 0.2 0 -0.3
v 0.2 0 -0.4
v 0.2 0.1 0.1
v 0.2 0.1 0
v 0.2 0.1 -0.1
v 0.2 0.1 -0.2
v 0.2 0.1 -0.3
v 0.2 0.1 -0.4
v 0.2 0.2 0.1
v 0.2 0.2 0
v 0.2 0.2 -0.1
v 0.2 0.2 -0.2
v 0.2 0.2 -0.3
v 0.2 0.4 0.1
v 0.2 0.4 -0.2
v 0.2 0.5 0.1
v 0.2 0.5 -0.2
v 0.2 0.8 0.1
v 0.2 0.8 -0.2
v 0.2 0.9 0.1
v 0.2 0.9 -0.2
v 0.2 1.1 0.1
v 0.2 1.1 0
v 0.2 1.1 -0.1
v 0.2 1.1 -0.2
v 0.2 1.2 0.1
v 0.2 1.2 0
v 0.2 1.2 -0.1
v 0.2 1.2 -0.2
v 0.2 1.3 0.1
v 0.2 1.3 -0.2
v 0.3 0 0.4
v 0.3 0 0.3
v 0.3 0 -0.2
v 0.3 0 -0.3
v 0.3 0.1 0.4
v 0.3 0.1 0.3
v 0.3 0.1 -0.2
v 0.3 0.1 -0.3
v 0.4 0.1 0
v 0.4 0.1 -0.1
v 0.4 1.4 0
v 0.4 1.4 -0.1
v 0.2 0 0.4
v 0.2 0.1 0.4
v 0.3 0 0.4
v 0.3 0.1 0.4
v -0.4 0.1 0.3
v -0.4 1.4 0.3
v -0.3 0 0.3
v -0.3 0.1 0.3
v -0.3 1.4 0.3
v -0.2 0 0.3
v -0.2 0.1 0.3
v -0.3 0.1 0.2
v -0.3 0.2 0.2
v -0.3 1.1 0.2
v -0.3 1.2 0.2
v -0.2 0 0.2
v -0.2 0.1 0.2
v -0.2 0.2 0.2
v -0.2 0.4 0.2
v -0.2 0.5 0.2
v -0.2 0.8 0.2
v -0.2 0.9 0.2
v -0.2 1.1 0.2
v -0.2 1.2 0.2
v -0.2 1.3 0.2
v 0.1 0 0.2
v 0.1 0.1 0.2
v 0.1 0.2 0.2
v 0.1 0.4 0.2
v 0.1 0.5 0.2
v 0.1 0.8 0.2
v 0.1 0.9 0.2
v 0.1 1.1 0.2
v 0.1 1.2 0.2
v 0.1 1.3 0.2
v -0.3 0.2 0.1
v -0.3 0.4 0.1
v -0.3 0.5 0.1
v -0.3 0.8 0.1
v -0.3 0.9 0.1
v -0.3 1.1 0.1
v -0.3 1.2 0.1
v -0.3 1.3 0.1
v -0.2 0.2 0.1
v -0.2 0.4 0.1
v -0.2 0.5 0.1
v -0.2 0.8 0.1
v -0.2 0.9 0.1
v -0.2 1.1 0.1
v -0.2 1.2 0.1
v -0.2 1.3 0.1
v -0.2 1.9 0.1
v -0.1 1.9 0.1
v -0.1 2.2 0.1
v 0 1.9 0.1
v 0 2.2 0.1
v 0.1 0 0.1
v 0.1 0.1 0.1
v 0.1 0.2 0.1
v 0.1 0.4 0.1
v 0.1 0.5 0.1
v 0.1 0.8 0.1
v 0.1 0.9 0.1
v 0.1 1.1 0.1
v 0.1 1.2 0.1
v 0.1 1.3 0.1
v 0.1 1.9 0.1
v 0.2 0 0.1
v 0.2 0.1 0.1
v 0.2 0.2 0.1
v 0.2 0.4 0.1
v 0.2 0.5 0.1
v 0.2 0.8 0.1
v 0.2 0.9 0.1
v 0.2 1.1 0.1
v 0.2 1.2 0.1
v 0.2 1.3 0.1
v -0.2 1.9 0
v -0.2 2.2 0
v -0.1 1.9 0
v -0.1 2.2 0
v -0.1 3.8 0
v 0 1.9 0
v 0 2.2 0
v 0 3.8 0
v 0.1 1.9 0
v 0.1 2.2 0
v 0.2 0.1 0
v 0.2 0.2 0
v 0.2 1.1 0
v 0.2 1.2 0
v 0.3 0.2 0
v 0.3 1.1 0
v 0.3 1.2 0
v 0.3 1.4 0
v 0.4 0.1 0
v 0.4 1.4 0
v 0.2 0 -0.2
v 0.2 0.1 -0.2
v 0.3 0 -0.2
v 0.3 0.1 -0.2
v -0.5 0 -0.4
v -0.5 0.1 -0.4
v -0.4 0 -0.4
v -0.4 0.1 -0.4
v -0.3 0.1 -0.4
v -0.3 1.4 -0.4
v -0.2 0.1 -0.4
v -0.2 0.2 -0.4
v -0.2 1.1 -0.4
v -0.2 1.2 -0.4
v -0.2 1.4 -0.4
v 0.2 0 0.3
v 0.2 0.1 0.3
v 0.3 0 0.3
v 0.3 0.1 0.3
v -0.4 0.1 0.2
v -0.4 1.4 0.2
v -0.3 0.1 0.2
v -0.3 0.2 0.2
v -0.3 1.1 0.2
v -0.3 1.2 0.2
v -0.3 1.4 0.2
v -0.2 1.9 -0.1
v -0.2 2.2 -0.1
v -0.1 1.9 -0.1
v -0.1 2.2 -0.1
v -0.1 3.8 -0.1
v 0 1.9 -0.1
v 0 2.2 -0.1
v 0 3.8 -0.1
v 0.1 1.9 -0.1
v 0.1 2.2 -0.1
v 0.2 0.1 -0.1
v 0.2 0.2 -0.1
v 0.2 1.1 -0.1
v 0.2 1.2 -0.1
v 0.3 0.2 -0.1
v 0.3 1.1 -0.1
v 0.3 1.2 -0.1
v 0.3 1.4 -0.1
v 0.4 0.1 -0.1
v 0.4 1.4 -0.1
v -0.3 0 -0.2
v -0.3 0.1 -0.2
v -0.3 0.2 -0.2
v -0.3 0.4 -0.2
v -0.3 0.5 -0.2
v -0.3 0.8 -0.2
v -0.3 0.9 -0.2
v -0.3 1.1 -0.2
v -0.3 1.2 -0.2
v -0.3 1.3 -0.2
v -0.2 0 -0.2
v -0.2 0.1 -0.2
v -0.2 0.2 -0.2
v -0.2 0.4 -0.2
v -0.2 0.5 -0.2
v -0.2 0.8 -0.2
v -0.2 0.9 -0.2
v -0.2 1.1 -0.2
v -0.2 1.2 -0.2
v -0.2 1.3 -0.2
v -0.2 1.9 -0.2
v -0.1 1.9 -0.2
v -0.1 2.2 -0.2
v 0 1.9 -0.2
v 0 2.2 -0.2
v 0.1 0.2 -0.2
v 0.1 0.4 -0.2
v 0.1 0.5 -0.2
v 0.1 0.8 -0.2
v 0.1 0.9 -0.2
v 0.1 1.1 -0.2
v 0.1 1.2 -0.2
v 0.1 1.3 -0.2
v 0.1 1.9 -0.2
v 0.2 0.2 -0.2
v 0.2 0.4 -0.2
v 0.2 0.5 -0.2
v 0.2 0.8 -0.2
v 0.2 0.9 -0.2
v 0.2 1.1 -0.2
v 0.2 1.2 -0.2
v 0.2 1.3 -0.2
v -0.2 0 -0.3
v -0.2 0.1 -0.3
v -0.2 0.2 -0.3
v -0.2 0.4 -0.3
v -0.2 0.5 -0.3
v -0.2 0.8 -0.3
v -0.2 0.9 -0.3
v -0.2 1.1 -0.3
v -0.2 1.2 -0.3
v -0.2 1.3 -0.3
v -0.1 0.1 -0.3
v -0.1 0.2 -0.3
v -0.1 1.1 -0.3
v -0.1 1.2 -0.3
v 0 0 -0.3
v 0 0.1 -0.3
v 0.1 0.1 -0.3
v 0.1 0.2 -0.3
v 0.1 0.4 -0.3
v 0.1 0.5 -0.3
v 0.1 0.8 -0.3
v 0.1 0.9 -0.3
v 0.1 1.1 -0.3
v 0.1 1.2 -0.3
v 0.1 1.3 -0.3
v 0.2 0 -0.3
v 0.2 0.1 -0.3
v 0.2 0.2 -0.3
v 0.3 0 -0.3
v 0.3 0.1 -0.3
v -0.2 0.1 -0.4
v -0.2 0.2 -0.4
v -0.2 1.1 -0.4
v -0.2 1.2 -0.4
v -0.1 0.1 -0.4
v -0.1 0.2 -0.4
v -0.1 1.1 -0.4
v -0.1 1.2 -0.4
v 0 0 -0.4
v 0 0.1 -0.4
v 0.2 0 -0.4
v 0.2 0.1 -0.4
v -0.5 0 -0.5
v -0.5 0.1 -0.5
v -0.4 0 -0.5
v -0.4 0.1 -0.5
v -0.3 0.1 -0.5
v -0.3 1.4 -0.5
v -0.2 0.1 -0.5
v -0.2 1.4 -0.5
v 0.2 0 0.4
v 0.3 0 0.4
v -0.3 0 0.3
v -0.2 0 0.3
v 0.2 0 0.3
v 0.3 0 0.3
v -0.2 0 0.2
v 0.1 0 0.2
v -0.3 0 0.1
v -0.2 0 0.1
v 0.1 0 0.1
v 0.2 0 0.1
v -0.3 0 -0.2
v -0.2 0 -0.2
v 0.1 0 -0.2
v 0.2 0 -0.2
v 0.3 0 -0.2
v -0.2 0 -0.3
v 0 0 -0.3
v 0.1 0 -0.3
v 0.2 0 -0.3
v 0.3 0 -0.3
v -0.5 0 -0.4
v -0.4 0 -0.4
v 0 0 -0.4
v 0.2 0 -0.4
v -0.5 0 -0.5
v -0.4 0 -0.5
v -0.4 0.1 0.3
v -0.3 0.1 0.3
v -0.4 0.1 0.2
v -0.3 0.1 0.2
v 0.2 0.1 0
v 0.4 0.1 0
v 0.2 0.1 -0.1
v 0.4 0.1 -0.1
v -0.2 0.1 -0.3
v -0.1 0.1 -0.3
v -0.3 0.1 -0.4
v -0.2 0.1 -0.4
v -0.1 0.1 -0.4
v -0.3 0.1 -0.5
v -0.2 0.1 -0.5
v -0.2 0.5 0.2
v 0.1 0.5 0.2
v -0.3 0.5 0.1
v -0.2 0.5 0.1
v 0.1 0.5 0.1
v 0.2 0.5 0.1
v -0.3 0.5 -0.2
v -0.2 0.5 -0.2
v 0.1 0.5 -0.2
v 0.2 0.5 -0.2
v -0.2 0.5 -0.3
v 0.1 0.5 -0.3
v -0.2 0.9 0.2
v 0.1 0.9 0.2
v -0.3 0.9 0.1
v -0.2 0.9 0.1
v 0.1 0.9 0.1
v 0.2 0.9 0.1
v -0.3 0.9 -0.2
v -0.2 0.9 -0.2
v 0.1 0.9 -0.2
v 0.2 0.9 -0.2
v -0.2 0.9 -0.3
v 0.1 0.9 -0.3
v -0.3 1.1 0.2
v -0.2 1.1 0.2
v -0.3 1.1 0.1
v -0.2 1.1 0.1
v 0.2 1.1 0
v 0.3 1.1 0
v 0.2 1.1 -0.1
v 0.3 1.1 -0.1
v -0.2 1.1 -0.3
v -0.1 1.1 -0.3
v -0.2 1.1 -0.4
v -0.1 1.1 -0.4
v 0.2 0.1 0.4
v 0.3 0.1 0.4
v -0.3 0.1 0.3
v -0.2 0.1 0.3
v 0.2 0.1 0.3
v 0.3 0.1 0.3
v -0.3 0.1 0.2
v -0.2 0.1 0.2
v 0.2 0.1 -0.2
v 0.3 0.1 -0.2
v 0 0.1 -0.3
v 0.1 0.1 -0.3
v 0.2 0.1 -0.3
v 0.3 0.1 -0.3
v -0.5 0.1 -0.4
v -0.4 0.1 -0.4
v 0 0.1 -0.4
v 0.2 0.1 -0.4
v -0.5 0.1 -0.5
v -0.4 0.1 -0.5
v -0.3 0.2 0.2
v -0.2 0.2 0.2
v -0.3 0.2 0.1
v -0.2 0.2 0.1
v 0.2 0.2 0
v 0.3 0.2 0
v 0.2 0.2 -0.1
v 0.3 0.2 -0.1
v 0.1 0.2 -0.2
v 0.2 0.2 -0.2
v -0.2 0.2 -0.3
v -0.1 0.2 -0.3
v 0.1 0.2 -0.3
v 0.2 0.2 -0.3
v -0.2 0.2 -0.4
v -0.1 0.2 -0.4
v -0.2 0.4 0.2
v 0.1 0.4 0.2
v -0.3 0.4 0.1
v -0.2 0.4 0.1
v 0.1 0.4 0.1
v 0.2 0.4 0.1
v -0.3 0.4 -0.2
v -0.2 0.4 -0.2
v 0.1 0.4 -0.2
v 0.2 0.4 -0.2
v -0.2 0.4 -0.3
v 0.1 0.4 -0.3
v -0.2 0.8 0.2
v 0.1 0.8 0.2
v -0.3 0.8 0.1
v -0.2 0.8 0.1
v 0.1 0.8 0.1
v 0.2 0.8 0.1
v -0.3 0.8 -0.2
v -0.2 0.8 -0.2
v 0.1 0.8 -0.2
v 0.2 0.8 -0.2
v -0.2 0.8 -0.3
v 0.1 0.8 -0.3
v -0.3 1.2 0.2
v -0.2 1.2 0.2
v -0.3 1.2 0.1
v -0.2 1.2 0.1
v 0.2 1.2 0
v 0.3 1.2 0
v 0.2 1.2 -0.1
v 0.3 1.2 -0.1
v -0.2 1.2 -0.3
v -0.1 1.2 -0.3
v -0.2 1.2 -0.4
v -0.1 1.2 -0.4
v -0.2 1.3 0.2
v 0.1 1.3 0.2
v -0.3 1.3 0.1
v -0.2 1.3 0.1
v 0.1 1.3 0.1
v 0.2 1.3 0.1
v -0.3 1.3 -0.2
v -0.2 1.3 -0.2
v 0.1 1.3 -0.2
v 0.2 1.3 -0.2
v -0.2 1.3 -0.3
v 0.1 1.3 -0.3
v -0.4 1.4 0.3
v -0.3 1.4 0.3
v -0.4 1.4 0.2
v -0.3 1.4 0.2
v 0.3 1.4 0
v 0.4 1.4 0
v 0.3 1.4 -0.1
v 0.4 1.4 -0.1
v -0.3 1.4 -0.4
v -0.2 1.4 -0.4
v -0.3 1.4 -0.5
v -0.2 1.4 -0.5
v -0.2 1.9 0.1
v -0.1 1.9 0.1
v 0 1.9 0.1
v 0.1 1.9 0.1
v -0.2 1.9 0
v -0.1 1.9 0
v 0 1.9 0
v 0.1 1.9 0
v -0.2 1.9 -0.1
v -0.1 1.9 -0.1
v 0 1.9 -0.1
v 0.1 1.9 -0.1
v -0.2 1.9 -0.2
v -0.1 1.9 -0.2
v 0 1.9 -0.2
v 0.1 1.9 -0.2
v -0.1 2.2 0.1
v 0 2.2 0.1
v -0.2 2.2 0
v -0.1 2.2 0
v 0 2.2 0
v 0.1 2.2 0
v -0.2 2.2 -0.1
v -0.1 2.2 -0.1
v 0 2.2 -0.1
v 0.1 2.2 -0.1
v -0.1 2.2 -0.2
v 0 2.2 -0.2
v -0.1 3.8 0
v 0 3.8 0
v -0.1 3.8 -0.1
v 0 3.8 -0.1

# faces
f 3/1/1 2/1/1 1/1/1
f 4/1/1 2/1/1 3/1/1
f 7/4/1 6/4/1 5/4/1
f 8/4/1 6/4/1 7/4/1
f 12/1/1 10/1/1 9/1/1
f 13/1/1 10/1/1 12/1/1
f 14/3/1 11/3/1 10/3/1
f 14/1/1 10/1/1 13/1/1
f 15/3/1 11/3/1 14/3/1
f 18/4/1 14/4/1 13/4/1
f 19/6/1 15/6/1 14/6/1
f 19/4/1 14/4/1 18/4/1
f 20/6/1 15/6/1 19/6/1
f 21/3/1 20/3/1 19/3/1
f 22/3/1 20/3/1 21/3/1
f 25/5/1 24/5/1 23/5/1
f 26/5/1 24/5/1 25/5/1
f 30/3/1 28/3/1 27/3/1
f 31/3/1 28/3/1 30/3/1
f 32/4/1 30/4/1 29/4/1
f 33/5/1 31/5/1 30/5/1
f 33/4/1 30/4/1 32/4/1
f 34/5/1 31/5/1 33/5/1
f 35/3/1 34/3/1 33/3/1
f 36/3/1 34/3/1 35/3/1
f 37/4/1 17/4/1 16/4/1
f 38/4/1 17/4/1 37/4/1
f 41/3/1 40/3/1 39/3/1
f 42/3/1 40/3/1 41/3/1
f 46/6/1 42/6/1 41/6/1
f 47/4/1 43/4/1 42/4/1
f 47/6/1 42/6/1 46/6/1
f 48/4/1 43/4/1 47/4/1
f 49/3/1 45/3/1 44/3/1
f 50/3/1 45/3/1 49/3/1
f 51/3/1 47/3/1 46/3/1
f 52/3/1 47/3/1 51/3/1
f 54/5/1 51/5/1 50/5/1
f 55/5/1 51/5/1 54/5/1
f 57/5/1 54/5/1 53/5/1
f 58/5/1 54/5/1 57/5/1
f 59/5/1 56/5/1 55/5/1
f 60/5/1 56/5/1 59/5/1
f 62/5/1 59/5/1 58/5/1
f 63/5/1 59/5/1 62/5/1
f 65/3/1 62/3/1 61/3/1
f 66/3/1 62/3/1 65/3/1
f 67/3/1 64/3/1 63/3/1
f 68/3/1 64/3/1 67/3/1
f 72/5/1 68/5/1 67/5/1
f 73/4/1 69/4/1 68/4/1
f 73/5/1 68/5/1 72/5/1
f 74/4/1 69/4/1 73/4/1
f 75/3/1 71/3/1 70/3/1
f 76/3/1 71/3/1 75/3/1
f 77/3/1 73/3/1 72/3/1
f 78/3/1 73/3/1 77/3/1
f 79/2/1 77/2/1 76/2/1
f 80/2/1 77/2/1 79/2/1
f 81/2/1 77/2/1 80/2/1
f 82/2/1 77/2/1 81/2/1
f 83/5/1 81/5/1 80/5/1
f 84/5/1 81/5/1 83/5/1
f 89/5/1 86/5/1 85/5/1
f 90/5/1 86/5/1 89/5/1
f 91/5/1 88/5/1 87/5/1
f 92/5/1 88/5/1 91/5/1
f 93/4/1 91/4/1 90/4/1
f 94/4/1 91/4/1 93/4/1
f 97/1/1 96/1/1 95/1/1
f 98/1/1 96/1/1 97/1/1
f 101/1/1 100/1/1 99/1/1
f 102/1/1 100/1/1 101/1/1
f 105/4/1 104/4/1 103/4/1
f 106/4/1 104/4/1 105/4/1
f 109/4/1 108/4/1 107/4/1
f 110/4/1 108/4/1 109/4/1
f 111/1/2 112/1/2 113/1/2
f 113/1/2 112/1/2 114/1/2
f 115/4/2 116/4/2 117/4/2
f 115/4/2 117/4/2 118/4/2
f 115/4/2 118/4/2 119/4/2
f 115/4/2 119/4/2 120/4/2
f 120/4/2 119/4/2 121/4/2
f 122/1/2 123/1/2 124/1/2
f 124/1/2 123/1/2 125/1/2
f 126/4/2 127/4/2 128/4/2
f 128/4/2 127/4/2 129/4/2
f 129/4/2 127/4/2 130/4/2
f 130/4/2 127/4/2 131/4/2
f 131/4/2 127/4/2 132/4/2
f 133/4/2 134/4/2 135/4/2
f 135/4/2 134/4/2 136/4/2
f 137/4/2 138/4/2 139/4/2
f 139/4/2 138/4/2 140/4/2
f 141/5/2 142/5/2 145/5/2
f 145/5/2 142/5/2 146/5/2
f 143/5/2 144/5/2 147/5/2
f 147/5/2 144/5/2 148/5/2
f 146/4/2 147/4/2 149/4/2
f 149/4/2 147/4/2 150/4/2
f 151/3/2 152/3/2 153/3/2
f 153/3/2 152/3/2 154/3/2
f 153/6/2 154/6/2 155/6/2
f 155/6/2 154/6/2 156/6/2
f 155/3/2 156/3/2 159/3/2
f 159/3/2 156/3/2 160/3/2
f 157/3/2 158/3/2 161/3/2
f 161/3/2 158/3/2 162/3/2
f 160/5/2 161/5/2 164/5/2
f 164/5/2 161/5/2 165/5/2
f 163/5/2 164/5/2 167/5/2
f 167/5/2 164/5/2 168/5/2
f 165/5/2 166/5/2 169/5/2
f 169/5/2 166/5/2 170/5/2
f 168/5/2 169/5/2 172/5/2
f 172/5/2 169/5/2 173/5/2
f 171/3/2 172/3/2 175/3/2
f 175/3/2 172/3/2 176/3/2
f 173/3/2 174/3/2 177/3/2
f 177/3/2 174/3/2 178/3/2
f 175/5/2 176/5/2 179/5/2
f 179/5/2 176/5/2 180/5/2
f 177/5/2 178/5/2 181/5/2
f 181/5/2 178/5/2 182/5/2
f 179/3/2 180/3/2 183/3/2
f 183/3/2 180/3/2 184/3/2
f 181/3/2 182/3/2 185/3/2
f 185/3/2 182/3/2 186/3/2
f 184/2/2 185/2/2 187/2/2
f 187/2/2 185/2/2 188/2/2
f 188/2/2 185/2/2 189/2/2
f 189/2/2 185/2/2 190/2/2
f 188/5/2 189/5/2 191/5/2
f 191/5/2 189/5/2 192/5/2
f 193/3/2 194/3/2 197/3/2
f 197/3/2 194/3/2 198/3/2
f 198/3/2 194/3/2 199/3/2
f 199/3/2 194/3/2 200/3/2
f 195/1/2 196/1/2 201/1/2
f 201/1/2 196/1/2 202/1/2
f 197/6/2 198/6/2 203/6/2
f 203/6/2 198/6/2 204/6/2
f 199/6/2 200/6/2 205/6/2
f 200/1/2 201/1/2 206/1/2
f 205/6/2 200/6/2 206/6/2
f 206/1/2 201/1/2 207/1/2
f 203/3/2 204/3/2 208/3/2
f 204/3/2 205/3/2 208/3/2
f 205/3/2 206/3/2 208/3/2
f 208/3/2 206/3/2 209/3/2
f 210/5/2 211/5/2 212/5/2
f 212/5/2 211/5/2 213/5/2
f 214/3/2 215/3/2 216/3/2
f 216/3/2 215/3/2 217/3/2
f 217/3/2 215/3/2 218/3/2
f 218/3/2 215/3/2 219/3/2
f 216/5/2 217/5/2 220/5/2
f 220/5/2 217/5/2 221/5/2
f 218/5/2 219/5/2 222/5/2
f 222/5/2 219/5/2 223/5/2
f 220/3/2 221/3/2 224/3/2
f 221/3/2 222/3/2 224/3/2
f 222/3/2 223/3/2 224/3/2
f 224/3/2 223/3/2 225/3/2
f 226/1/2 227/1/2 230/1/2
f 230/1/2 227/1/2 231/1/2
f 228/1/2 229/1/2 232/1/2
f 232/1/2 229/1/2 233/1/2
f 234/4/2 235/4/2 236/4/2
f 236/4/2 235/4/2 237/4/2
f 240/1/3 239/1/3 238/1/3
f 241/1/3 239/1/3 240/1/3
f 245/4/3 243/4/3 242/4/3
f 246/4/3 243/4/3 245/4/3
f 247/1/3 245/1/3 244/1/3
f 248/1/3 245/1/3 247/1/3
f 254/4/3 250/4/3 249/4/3
f 255/4/3 250/4/3 254/4/3
f 260/4/3 252/4/3 251/4/3
f 261/4/3 252/4/3 260/4/3
f 263/3/3 254/3/3 253/3/3
f 264/6/3 255/6/3 254/6/3
f 264/3/3 254/3/3 263/3/3
f 265/3/3 256/3/3 255/3/3
f 265/6/3 255/6/3 264/6/3
f 266/3/3 256/3/3 265/3/3
f 267/5/3 258/5/3 257/5/3
f 268/5/3 258/5/3 267/5/3
f 269/3/3 260/3/3 259/3/3
f 270/5/3 261/5/3 260/5/3
f 270/3/3 260/3/3 269/3/3
f 271/3/3 262/3/3 261/3/3
f 271/5/3 261/5/3 270/5/3
f 272/3/3 262/3/3 271/3/3
f 281/3/3 274/3/3 273/3/3
f 282/3/3 274/3/3 281/3/3
f 283/5/3 276/5/3 275/5/3
f 284/5/3 276/5/3 283/5/3
f 285/3/3 278/3/3 277/3/3
f 286/3/3 278/3/3 285/3/3
f 287/3/3 280/3/3 279/3/3
f 288/3/3 280/3/3 287/3/3
f 290/2/3 289/2/3 288/2/3
f 292/2/3 290/2/3 288/2/3
f 292/5/3 291/5/3 290/5/3
f 293/5/3 291/5/3 292/5/3
f 297/5/3 283/5/3 282/5/3
f 298/5/3 283/5/3 297/5/3
f 299/5/3 285/5/3 284/5/3
f 300/5/3 285/5/3 299/5/3
f 303/2/3 292/2/3 288/2/3
f 304/2/3 292/2/3 303/2/3
f 305/3/3 295/3/3 294/3/3
f 306/6/3 296/6/3 295/6/3
f 306/3/3 295/3/3 305/3/3
f 307/3/3 297/3/3 296/3/3
f 307/6/3 296/6/3 306/6/3
f 308/3/3 297/3/3 307/3/3
f 309/5/3 299/5/3 298/5/3
f 310/5/3 299/5/3 309/5/3
f 311/3/3 301/3/3 300/3/3
f 312/5/3 302/5/3 301/5/3
f 312/3/3 301/3/3 311/3/3
f 313/3/3 303/3/3 302/3/3
f 313/5/3 302/5/3 312/5/3
f 314/3/3 303/3/3 313/3/3
f 317/5/3 316/5/3 315/5/3
f 318/5/3 316/5/3 317/5/3
f 321/4/3 319/4/3 318/4/3
f 322/4/3 319/4/3 321/4/3
f 323/5/3 321/5/3 320/5/3
f 324/5/3 321/5/3 323/5/3
f 329/4/3 326/4/3 325/4/3
f 330/4/3 328/4/3 327/4/3
f 331/4/3 328/4/3 330/4/3
f 333/4/3 329/4/3 325/4/3
f 333/4/3 332/4/3 331/4/3
f 333/4/3 331/4/3 330/4/3
f 333/4/3 330/4/3 329/4/3
f 334/4/3 332/4/3 333/4/3
f 337/1/3 336/1/3 335/1/3
f 338/1/3 336/1/3 337/1/3
f 341/1/3 340/1/3 339/1/3
f 342/1/3 340/1/3 341/1/3
f 345/4/3 344/4/3 343/4/3
f 346/4/3 344/4/3 345/4/3
f 347/4/3 344/4/3 346/4/3
f 348/4/3 344/4/3 347/4/3
f 349/4/3 344/4/3 348/4/3
f 350/1/4 351/1/4 352/1/4
f 352/1/4 351/1/4 353/1/4
f 354/4/4 355/4/4 356/4/4
f 356/4/4 355/4/4 357/4/4
f 357/4/4 355/4/4 358/4/4
f 358/4/4 355/4/4 359/4/4
f 359/4/4 355/4/4 360/4/4
f 361/5/4 362/5/4 363/5/4
f 363/5/4 362/5/4 364/5/4
f 364/4/4 365/4/4 367/4/4
f 367/4/4 365/4/4 368/4/4
f 366/5/4 367/5/4 369/5/4
f 369/5/4 367/5/4 370/5/4
f 371/4/4 372/4/4 375/4/4
f 373/4/4 374/4/4 376/4/4
f 376/4/4 374/4/4 377/4/4
f 371/4/4 375/4/4 379/4/4
f 377/4/4 378/4/4 379/4/4
f 376/4/4 377/4/4 379/4/4
f 375/4/4 376/4/4 379/4/4
f 379/4/4 378/4/4 380/4/4
f 381/3/4 382/3/4 391/3/4
f 382/6/4 383/6/4 392/6/4
f 391/3/4 382/3/4 392/3/4
f 383/3/4 384/3/4 393/3/4
f 392/6/4 383/6/4 393/6/4
f 393/3/4 384/3/4 394/3/4
f 385/5/4 386/5/4 395/5/4
f 395/5/4 386/5/4 396/5/4
f 387/3/4 388/3/4 397/3/4
f 388/5/4 389/5/4 398/5/4
f 397/3/4 388/3/4 398/3/4
f 389/3/4 390/3/4 399/3/4
f 398/5/4 389/5/4 399/5/4
f 399/3/4 390/3/4 400/3/4
f 400/2/4 401/2/4 402/2/4
f 400/2/4 402/2/4 404/2/4
f 402/5/4 403/5/4 404/5/4
f 404/5/4 403/5/4 405/5/4
f 394/5/4 395/5/4 407/5/4
f 407/5/4 395/5/4 408/5/4
f 396/5/4 397/5/4 409/5/4
f 409/5/4 397/5/4 410/5/4
f 400/2/4 404/2/4 413/2/4
f 413/2/4 404/2/4 414/2/4
f 406/3/4 407/3/4 415/3/4
f 415/3/4 407/3/4 416/3/4
f 408/5/4 409/5/4 417/5/4
f 417/5/4 409/5/4 418/5/4
f 410/3/4 411/3/4 419/3/4
f 411/5/4 412/5/4 420/5/4
f 419/3/4 411/3/4 420/3/4
f 412/3/4 413/3/4 421/3/4
f 420/5/4 412/5/4 421/5/4
f 421/3/4 413/3/4 422/3/4
f 423/3/4 424/3/4 433/3/4
f 425/3/4 426/3/4 434/3/4
f 429/3/4 430/3/4 435/3/4
f 431/3/4 432/3/4 436/3/4
f 423/3/4 433/3/4 437/3/4
f 433/6/4 434/6/4 438/6/4
f 437/3/4 433/3/4 438/3/4
f 438/6/4 434/6/4 439/6/4
f 434/3/4 426/3/4 440/3/4
f 439/6/4 434/6/4 440/6/4
f 440/3/4 426/3/4 441/3/4
f 427/5/4 428/5/4 442/5/4
f 442/5/4 428/5/4 443/5/4
f 429/3/4 435/3/4 444/3/4
f 435/5/4 436/5/4 445/5/4
f 444/3/4 435/3/4 445/3/4
f 436/3/4 432/3/4 446/3/4
f 445/5/4 436/5/4 446/5/4
f 446/3/4 432/3/4 447/3/4
f 439/1/4 440/1/4 449/1/4
f 449/1/4 440/1/4 450/1/4
f 448/1/4 449/1/4 451/1/4
f 451/1/4 449/1/4 452/1/4
f 453/4/4 454/4/4 457/4/4
f 457/4/4 454/4/4 458/4/4
f 455/4/4 456/4/4 459/4/4
f 459/4/4 456/4/4 460/4/4
f 461/1/4 462/1/4 463/1/4
f 463/1/4 462/1/4 464/1/4
f 465/1/4 466/1/4 467/1/4
f 467/1/4 466/1/4 468/1/4
f 469/4/4 470/4/4 471/4/4
f 471/4/4 470/4/4 472/4/4
f 477/1/5 474/1/5 473/1/5
f 478/1/5 474/1/5 477/1/5
f 479/1/5 476/1/5 475/1/5
f 481/1/5 479/1/5 475/1/5
f 482/3/5 480/3/5 479/3/5
f 482/1/5 479/1/5 481/1/5
f 483/3/5 480/3/5 482/3/5
f 485/3/5 482/3/5 481/3/5
f 485/3/5 484/3/5 483/3/5
f 485/3/5 483/3/5 482/3/5
f 486/3/5 484/3/5 485/3/5
f 487/3/5 484/3/5 486/3/5
f 488/3/5 484/3/5 487/3/5
f 490/3/5 487/3/5 486/3/5
f 491/3/5 487/3/5 490/3/5
f 492/1/5 489/1/5 488/1/5
f 492/3/5 487/3/5 491/3/5
f 492/1/5 488/1/5 487/1/5
f 493/1/5 489/1/5 492/1/5
f 494/1/5 489/1/5 493/1/5
f 497/1/5 492/1/5 491/1/5
f 497/1/5 493/1/5 492/1/5
f 498/1/5 493/1/5 497/1/5
f 499/1/5 496/1/5 495/1/5
f 500/1/5 496/1/5 499/1/5
f 503/4/5 502/4/5 501/4/5
f 504/4/5 502/4/5 503/4/5
f 507/4/5 506/4/5 505/4/5
f 508/4/5 506/4/5 507/4/5
f 512/4/5 510/4/5 509/4/5
f 513/4/5 510/4/5 512/4/5
f 514/4/5 512/4/5 511/4/5
f 515/4/5 512/4/5 514/4/5
f 519/5/5 517/5/5 516/5/5
f 520/5/5 517/5/5 519/5/5
f 522/5/5 519/5/5 518/5/5
f 523/5/5 519/5/5 522/5/5
f 524/5/5 521/5/5 520/5/5
f 525/5/5 521/5/5 524/5/5
f 526/5/5 524/5/5 523/5/5
f 527/5/5 524/5/5 526/5/5
f 531/3/5 529/3/5 528/3/5
f 532/3/5 529/3/5 531/3/5
f 534/3/5 531/3/5 530/3/5
f 535/3/5 531/3/5 534/3/5
f 536/3/5 533/3/5 532/3/5
f 537/3/5 533/3/5 536/3/5
f 538/3/5 536/3/5 535/3/5
f 539/3/5 536/3/5 538/3/5
f 542/4/5 541/4/5 540/4/5
f 543/4/5 541/4/5 542/4/5
f 546/4/5 545/4/5 544/4/5
f 547/4/5 545/4/5 546/4/5
f 550/4/5 549/4/5 548/4/5
f 551/4/5 549/4/5 550/4/5
f 552/1/6 553/1/6 556/1/6
f 556/1/6 553/1/6 557/1/6
f 554/1/6 555/1/6 558/1/6
f 558/1/6 555/1/6 559/1/6
f 560/1/6 561/1/6 564/1/6
f 564/1/6 561/1/6 565/1/6
f 562/1/6 563/1/6 568/1/6
f 563/1/6 564/1/6 568/1/6
f 568/1/6 564/1/6 569/1/6
f 566/1/6 567/1/6 570/1/6
f 570/1/6 567/1/6 571/1/6
f 572/4/6 573/4/6 574/4/6
f 574/4/6 573/4/6 575/4/6
f 576/4/6 577/4/6 578/4/6
f 578/4/6 577/4/6 579/4/6
f 580/1/6 581/1/6 584/1/6
f 584/1/6 581/1/6 585/1/6
f 582/4/6 583/4/6 586/4/6
f 586/4/6 583/4/6 587/4/6
f 588/3/6 589/3/6 591/3/6
f 591/3/6 589/3/6 592/3/6
f 590/3/6 591/3/6 594/3/6
f 594/3/6 591/3/6 595/3/6
f 592/3/6 593/3/6 596/3/6
f 596/3/6 593/3/6 597/3/6
f 595/3/6 596/3/6 598/3/6
f 598/3/6 596/3/6 599/3/6
f 600/5/6 601/5/6 603/5/6
f 603/5/6 601/5/6 604/5/6
f 602/5/6 603/5/6 606/5/6
f 606/5/6 603/5/6 607/5/6
f 604/5/6 605/5/6 608/5/6
f 608/5/6 605/5/6 609/5/6
f 607/5/6 608/5/6 610/5/6
f 610/5/6 608/5/6 611/5/6
f 612/4/6 613/4/6 614/4/6
f 614/4/6 613/4/6 615/4/6
f 616/4/6 617/4/6 618/4/6
f 618/4/6 617/4/6 619/4/6
f 620/4/6 621/4/6 622/4/6
f 622/4/6 621/4/6 623/4/6
f 624/3/6 625/3/6 627/3/6
f 627/3/6 625/3/6 628/3/6
f 626/3/6 627/3/6 630/3/6
f 630/3/6 627/3/6 631/3/6
f 628/3/6 629/3/6 632/3/6
f 632/3/6 629/3/6 633/3/6
f 631/3/6 632/3/6 634/3/6
f 634/3/6 632/3/6 635/3/6
f 636/4/6 637/4/6 638/4/6
f 638/4/6 637/4/6 639/4/6
f 640/4/6 641/4/6 642/4/6
f 642/4/6 641/4/6 643/4/6
f 644/4/6 645/4/6 646/4/6
f 646/4/6 645/4/6 647/4/6
f 648/2/6 649/2/6 652/2/6
f 652/2/6 649/2/6 653/2/6
f 650/2/6 651/2/6 654/2/6
f 654/2/6 651/2/6 655/2/6
f 656/2/6 657/2/6 660/2/6
f 660/2/6 657/2/6 661/2/6
f 658/2/6 659/2/6 662/2/6
f 662/2/6 659/2/6 663/2/6
f 664/5/6 665/5/6 667/5/6
f 667/5/6 665/5/6 668/5/6
f 666/5/6 667/5/6 670/5/6
f 670/5/6 667/5/6 671/5/6
f 668/5/6 669/5/6 672/5/6
f 672/5/6 669/5/6 673/5/6
f 671/5/6 672/5/6 674/5/6
f 674/5/6 672/5/6 675/5/6
f 676/4/6 677/4/6 678/4/6
f 678/4/6 677/4/6 679/4/6
