# MagicaVoxel @ Ephtracy

# group
o 

# material
mtllib tree2.vox.mtl
usemtl palette

# normals
vn -1 0 0
vn 1 0 0
vn 0 0 1
vn 0 0 -1
vn 0 -1 0
vn 0 1 0

# texcoords
vt 0.373047 0.5
vt 0.486328 0.5
vt 0.490234 0.5

# verts
v -0.3 0.2 0.3
v -0.3 0.2 -0.2
v -0.3 0.4 0.3
v -0.3 0.4 -0.2
v -0.3 0.6 0.3
v -0.3 0.6 -0.2
v -0.3 0.7 0.3
v -0.3 0.7 -0.2
v -0.1 0 0.1
v -0.1 0 0
v -0.1 0.1 0.2
v -0.1 0.1 0.1
v -0.1 0.2 0.2
v -0.1 0.2 0
v 0 0 0.1
v 0 0 0
v 0 0.1 0.2
v 0 0.1 0.1
v 0 0.2 0.2
v 0 0.2 0
v 0.2 0.2 0.3
v 0.2 0.2 -0.2
v 0.2 0.4 0.3
v 0.2 0.4 -0.2
v 0.2 0.6 0.3
v 0.2 0.6 -0.2
v 0.2 0.7 0.3
v 0.2 0.7 -0.2
v -0.3 0.2 0.3
v -0.3 0.4 0.3
v -0.3 0.6 0.3
v -0.3 0.7 0.3
v 0.2 0.2 0.3
v 0.2 0.4 0.3
v 0.2 0.6 0.3
v 0.2 0.7 0.3
v -0.1 0.1 0.2
v -0.1 0.2 0.2
v 0 0.1 0.2
v 0 0.2 0.2
v -0.1 0 0.1
v -0.1 0.1 0.1
v 0 0 0.1
v 0 0.1 0.1
v -0.1 0 0
v -0.1 0.2 0
v 0 0 0
v 0 0.2 0
v -0.3 0.2 -0.2
v -0.3 0.4 -0.2
v -0.3 0.6 -0.2
v -0.3 0.7 -0.2
v 0.2 0.2 -0.2
v 0.2 0.4 -0.2
v 0.2 0.6 -0.2
v 0.2 0.7 -0.2
v -0.1 0 0.1
v 0 0 0.1
v -0.1 0 0
v 0 0 0
v -0.1 0.1 0.2
v 0 0.1 0.2
v -0.1 0.1 0.1
v 0 0.1 0.1
v -0.3 0.2 0.3
v 0.2 0.2 0.3
v -0.1 0.2 0.2
v 0 0.2 0.2
v -0.1 0.2 0
v 0 0.2 0
v -0.3 0.2 -0.2
v 0.2 0.2 -0.2
v -0.3 0.7 0.3
v 0.2 0.7 0.3
v -0.3 0.7 -0.2
v 0.2 0.7 -0.2

# faces
f 3/3/1 2/3/1 1/3/1
f 4/3/1 2/3/1 3/3/1
f 5/2/1 4/2/1 3/2/1
f 6/2/1 4/2/1 5/2/1
f 7/3/1 6/3/1 5/3/1
f 8/3/1 6/3/1 7/3/1
f 12/1/1 10/1/1 9/1/1
f 13/1/1 12/1/1 11/1/1
f 14/1/1 10/1/1 12/1/1
f 14/1/1 12/1/1 13/1/1
f 15/1/2 16/1/2 18/1/2
f 17/1/2 18/1/2 19/1/2
f 18/1/2 16/1/2 20/1/2
f 19/1/2 18/1/2 20/1/2
f 21/3/2 22/3/2 23/3/2
f 23/3/2 22/3/2 24/3/2
f 23/2/2 24/2/2 25/2/2
f 25/2/2 24/2/2 26/2/2
f 25/3/2 26/3/2 27/3/2
f 27/3/2 26/3/2 28/3/2
f 33/3/3 30/3/3 29/3/3
f 34/2/3 31/2/3 30/2/3
f 34/3/3 30/3/3 33/3/3
f 35/3/3 32/3/3 31/3/3
f 35/2/3 31/2/3 34/2/3
f 36/3/3 32/3/3 35/3/3
f 39/1/3 38/1/3 37/1/3
f 40/1/3 38/1/3 39/1/3
f 43/1/3 42/1/3 41/1/3
f 44/1/3 42/1/3 43/1/3
f 45/1/4 46/1/4 47/1/4
f 47/1/4 46/1/4 48/1/4
f 49/3/4 50/3/4 53/3/4
f 50/2/4 51/2/4 54/2/4
f 53/3/4 50/3/4 54/3/4
f 51/3/4 52/3/4 55/3/4
f 54/2/4 51/2/4 55/2/4
f 55/3/4 52/3/4 56/3/4
f 59/1/5 58/1/5 57/1/5
f 60/1/5 58/1/5 59/1/5
f 63/1/5 62/1/5 61/1/5
f 64/1/5 62/1/5 63/1/5
f 67/3/5 66/3/5 65/3/5
f 68/3/5 66/3/5 67/3/5
f 69/3/5 67/3/5 65/3/5
f 70/3/5 66/3/5 68/3/5
f 71/3/5 69/3/5 65/3/5
f 71/3/5 70/3/5 69/3/5
f 72/3/5 66/3/5 70/3/5
f 72/3/5 70/3/5 71/3/5
f 73/3/6 74/3/6 75/3/6
f 75/3/6 74/3/6 76/3/6
