# MagicaVoxel @ Ephtracy

# group
o 

# material
mtllib short_log.vox.mtl
usemtl palette

# normals
vn -1 0 0
vn 1 0 0
vn 0 0 1
vn 0 0 -1
vn 0 -1 0
vn 0 1 0

# texcoords
vt 0.369141 0.5
vt 0.373047 0.5
vt 0.533203 0.5
vt 0.537109 0.5

# verts
v 1.2 0 0.4
v 1.2 0 -0.2
v 1.2 0.1 0.3
v 1.2 0.1 0
v 1.2 0.2 0.4
v 1.2 0.2 0.3
v 1.2 0.2 0
v 1.2 0.2 -0.2
v 2.4 0 0.4
v 2.4 0 -0.2
v 2.4 0.1 0.3
v 2.4 0.1 0.1
v 2.4 0.2 0.4
v 2.4 0.2 0.3
v 2.4 0.2 0.1
v 2.4 0.2 -0.2
v 1.2 0 0.4
v 1.2 0.2 0.4
v 1.6 0.1 0.4
v 1.6 0.2 0.4
v 1.9 0.1 0.4
v 1.9 0.2 0.4
v 2.1 0.1 0.4
v 2.1 0.2 0.4
v 2.3 0 0.4
v 2.3 0.1 0.4
v 2.4 0 0.4
v 2.4 0.2 0.4
v 1.2 0 -0.2
v 1.2 0.2 -0.2
v 1.3 0.1 -0.2
v 1.3 0.2 -0.2
v 1.9 0.1 -0.2
v 1.9 0.2 -0.2
v 2.3 0 -0.2
v 2.3 0.2 -0.2
v 2.4 0 -0.2
v 2.4 0.2 -0.2
v 1.2 0 0.4
v 2.3 0 0.4
v 2.4 0 0.4
v 1.2 0 -0.2
v 2.3 0 -0.2
v 2.4 0 -0.2
v 1.2 0.2 0.4
v 1.6 0.2 0.4
v 1.9 0.2 0.4
v 2.1 0.2 0.4
v 2.4 0.2 0.4
v 1.2 0.2 0.3
v 1.3 0.2 0.3
v 1.6 0.2 0.3
v 1.8 0.2 0.3
v 1.9 0.2 0.3
v 2.1 0.2 0.3
v 2.3 0.2 0.3
v 2.4 0.2 0.3
v 1.5 0.2 0.2
v 1.7 0.2 0.2
v 1.8 0.2 0.2
v 2.1 0.2 0.2
v 1.5 0.2 0.1
v 1.7 0.2 0.1
v 1.9 0.2 0.1
v 2.1 0.2 0.1
v 2.3 0.2 0.1
v 2.4 0.2 0.1
v 1.2 0.2 0
v 1.3 0.2 0
v 1.6 0.2 0
v 1.9 0.2 0
v 2.1 0.2 0
v 1.3 0.2 -0.1
v 1.6 0.2 -0.1
v 1.9 0.2 -0.1
v 2.3 0.2 -0.1
v 1.2 0.2 -0.2
v 1.3 0.2 -0.2
v 1.9 0.2 -0.2
v 2.3 0.2 -0.2
v 2.4 0.2 -0.2

# faces
f 3/2/1 2/2/1 1/2/1
f 4/2/1 2/2/1 3/2/1
f 5/2/1 3/2/1 1/2/1
f 6/1/1 4/1/1 3/1/1
f 6/2/1 3/2/1 5/2/1
f 7/2/1 2/2/1 4/2/1
f 7/1/1 4/1/1 6/1/1
f 8/2/1 2/2/1 7/2/1
f 9/1/2 10/1/2 11/1/2
f 11/1/2 10/1/2 12/1/2
f 9/1/2 11/1/2 13/1/2
f 11/2/2 12/2/2 14/2/2
f 13/1/2 11/1/2 14/1/2
f 12/1/2 10/1/2 15/1/2
f 14/2/2 12/2/2 15/2/2
f 15/1/2 10/1/2 16/1/2
f 19/2/3 18/2/3 17/2/3
f 20/2/3 18/2/3 19/2/3
f 21/2/3 19/2/3 17/2/3
f 21/1/3 20/1/3 19/1/3
f 22/1/3 20/1/3 21/1/3
f 23/2/3 21/2/3 17/2/3
f 23/2/3 22/2/3 21/2/3
f 24/2/3 22/2/3 23/2/3
f 25/2/3 23/2/3 17/2/3
f 26/1/3 24/1/3 23/1/3
f 26/2/3 23/2/3 25/2/3
f 27/1/3 26/1/3 25/1/3
f 28/1/3 24/1/3 26/1/3
f 28/1/3 26/1/3 27/1/3
f 29/2/4 30/2/4 31/2/4
f 31/2/4 30/2/4 32/2/4
f 29/2/4 31/2/4 33/2/4
f 31/1/4 32/1/4 33/1/4
f 33/1/4 32/1/4 34/1/4
f 29/2/4 33/2/4 35/2/4
f 33/2/4 34/2/4 35/2/4
f 35/2/4 34/2/4 36/2/4
f 35/1/4 36/1/4 37/1/4
f 37/1/4 36/1/4 38/1/4
f 42/2/5 40/2/5 39/2/5
f 43/1/5 41/1/5 40/1/5
f 43/2/5 40/2/5 42/2/5
f 44/1/5 41/1/5 43/1/5
f 45/2/6 46/2/6 50/2/6
f 50/2/6 46/2/6 51/2/6
f 46/1/6 47/1/6 52/1/6
f 51/2/6 46/2/6 52/2/6
f 52/1/6 47/1/6 53/1/6
f 47/2/6 48/2/6 54/2/6
f 53/1/6 47/1/6 54/1/6
f 48/1/6 49/1/6 55/1/6
f 54/2/6 48/2/6 55/2/6
f 55/1/6 49/1/6 56/1/6
f 56/1/6 49/1/6 57/1/6
f 52/4/6 53/4/6 58/4/6
f 51/4/6 52/4/6 58/4/6
f 58/4/6 53/4/6 59/4/6
f 53/3/6 54/3/6 60/3/6
f 59/4/6 53/4/6 60/4/6
f 54/3/6 55/3/6 60/3/6
f 55/4/6 56/4/6 61/4/6
f 60/3/6 55/3/6 61/3/6
f 58/3/6 59/3/6 62/3/6
f 51/4/6 58/4/6 62/4/6
f 60/4/6 61/4/6 63/4/6
f 62/3/6 59/3/6 63/3/6
f 59/4/6 60/4/6 63/4/6
f 63/4/6 61/4/6 64/4/6
f 61/4/6 56/4/6 65/4/6
f 64/4/6 61/4/6 65/4/6
f 56/2/6 57/2/6 66/2/6
f 65/4/6 56/4/6 66/4/6
f 66/2/6 57/2/6 67/2/6
f 50/1/6 51/1/6 68/1/6
f 63/4/6 64/4/6 69/4/6
f 68/1/6 51/1/6 69/1/6
f 51/4/6 62/4/6 69/4/6
f 62/4/6 63/4/6 69/4/6
f 69/4/6 64/4/6 70/4/6
f 64/3/6 65/3/6 71/3/6
f 70/4/6 64/4/6 71/4/6
f 65/4/6 66/4/6 72/4/6
f 71/3/6 65/3/6 72/3/6
f 69/3/6 70/3/6 73/3/6
f 68/2/6 69/2/6 73/2/6
f 70/4/6 71/4/6 74/4/6
f 73/3/6 70/3/6 74/3/6
f 71/4/6 72/4/6 74/4/6
f 74/4/6 72/4/6 75/4/6
f 72/4/6 66/4/6 76/4/6
f 75/4/6 72/4/6 76/4/6
f 66/1/6 67/1/6 76/1/6
f 68/2/6 73/2/6 77/2/6
f 74/1/6 75/1/6 78/1/6
f 77/2/6 73/2/6 78/2/6
f 73/1/6 74/1/6 78/1/6
f 75/2/6 76/2/6 79/2/6
f 78/1/6 75/1/6 79/1/6
f 76/1/6 67/1/6 80/1/6
f 79/2/6 76/2/6 80/2/6
f 80/1/6 67/1/6 81/1/6
